<svg xmlns:xlink="http://www.w3.org/1999/xlink" xmlns="http://www.w3.org/2000/svg" viewBox="0 0 520 450">
    <defs>
        <linearGradient x1="179.8" x2="186.2" y1="113.3" y2="113.3"
                        gradientTransform="matrix(.9998 .01955 -.13659 .96752 16 -41)" gradientUnits="userSpaceOnUse">
            <stop offset="0" stop-color="#ddecf8"/>
            <stop offset=".9" stop-color="#a1cff7"/>
        </linearGradient>
        <linearGradient xlink:href="#linear-gradient" x1="188.9" x2="210.2" y1="122.6"
                        y2="122.6"/>
        <linearGradient xlink:href="#linear-gradient" x1="179.9" x2="186.3" y1="124.4"
                        y2="124.4"/>
        <linearGradient xlink:href="#linear-gradient" x1="189" x2="210.3" y1="133.7" y2="133.7"/>
        <linearGradient xlink:href="#linear-gradient" x1="180" x2="186.4" y1="135.4" y2="135.4"/>
        <linearGradient xlink:href="#linear-gradient" x1="189.1" x2="210.4" y1="144.8"
                        y2="144.8"/>
        <style>
            .clss-1{stroke:#fff;stroke-linecap:round;stroke-linejoin:round;stroke-width:6.69px;fill:none}.clss-2{fill:none;stroke:#97cbff;stroke-miterlimit:10;stroke-width:3.7px}.clss-4{fill:#f4b22c}.clss-5{fill:#f96b69}.clss-6{fill:#0097fd}.clss-7{fill:#ebf7ff}.clss-8{fill:#ea8a6c}.clss-9{fill:#ebd265}.clss-10{fill:#fff}.clss-13{fill:#edb2a1}.clss-14{fill:#ffc2b0}.clss-15{fill:#e8362d}.clss-16{fill:#fcfeff}.clss-17{fill:#699cd1}.clss-18{fill:#97caff}.clss-19{fill:#97cbff}.clss-20{fill:#b6d1ed}.clss-22{fill:#bc4073}.clss-24{fill:#8db0da}.clss-25,.clss-26{fill:#a8c4e5}.clss-27{fill:#bfdfff}.clss-30{fill:#d32420}.clss-31{fill:#e1eaf4}.clss-34{fill:#423a66}.clss-35{fill:#364354}.clss-36{fill:#45446c}.clss-37{fill:#3f5da0}.clss-39,.clss-40{fill:#88bdeb}.clss-41{fill:#283d75}.clss-43{fill:#2c4482}.clss-44{fill:#38393a}.clss-45{fill:#4c73db}.clss-47{fill:#514677}.clss-48{fill:#51565b}.clss-49{fill:#513554}.clss-26,.clss-40{mix-blend-mode:multiply}.clss-26{opacity:.4}.clss-40{opacity:.43}
        </style>
    </defs>
    <g style="isolation:isolate">
        <g id="1212">
            <path d="M373 326 175 212c-2-2-2-4 1-6l95-54c2-2 6-2 9-1l197 115c2 1 2 3-1 5l-94 54c-3 2-7 2-9 1Z"
                  class="clss-26"/>
            <path d="M447 163v-3h-1v-1l-1-1-1-1h-1l-1-1-6 3 2 1h1v1l1 1v1h1v2l1 1v2l-21 125-2 4 6-5 2-4 20-122v-3Z"
                  class="clss-24"/>
            <path d="M438 160c2 1 4 5 4 8l-21 126c0 3-3 4-5 3L221 185c-2-2-4-5-4-8l21-127c0-3 3-4 6-2l194 112Z"
                  class="clss-10"/>
            <path d="M444 141 252 30a10 10 0 0 0-1 0l-1-1h-2l-1 1-5 3h1v-1l1 1h2l1 1 192 111h1l4-2v-2ZM250 31Z"
                  class="clss-25"/>
            <path d="M449 149v-4h-1v-1h-1v-1h-1v-1h-1l-4-3-6 4 5 2v1h1l1 1a6 6 0 0 1 0 1h1v2h1v3l-21 125-1 4 5-4 2-4 20-123v-2Z"
                  class="clss-24"/>
            <path d="M440 145c2 2 4 5 4 8l-21 127c0 2-3 3-5 2L224 170c-3-2-5-5-4-8l20-127c1-2 3-4 6-2l194 112Z"
                  class="clss-43"/>
            <path d="m433 153 4 7-19 106c0 3-3 3-5 2L229 164c-3-2-4-5-4-7l19-106c0-3 2-3 5-2l184 104Z" class="clss-19"/>
            <path d="M418 306v-6l-8 3-1-4-190-110c-3-1-7-1-10 1l-82 47v-1l-12 6-2-1v6l1 2 198 114c2 2 6 2 9 0l95-54 2-3Z"
                  class="clss-43"/>
            <path d="M312 356 114 242c-2-2-2-4 1-6l95-54c2-2 6-2 9-1l197 114c3 2 2 4 0 6l-95 54c-3 2-7 2-9 1Z"
                  class="clss-31"/>
            <g style="opacity:.4;mix-blend-mode:multiply">
                <path d="m222 203-2-1-12-7 8-5h1l12 7v1l-7 5ZM235 223h-1l-12-7v-1l8-4h1l12 7v1l-8 4ZM228 232h-1l-12-7v-1l8-5 1 1 12 6v1l-8 5ZM209 233h-1l-12-7 8-5h1l12 7v1l-8 4ZM176 229l-1-1-12-6v-1l9-6 1 1 12 6 1 1-10 6ZM197 241l-2-1-15-9-1-1 10-5h1l16 9v1l-9 6ZM300 300h-1l-12-7v-1l3-2 1 1 12 7h1l-4 2ZM316 310h-1l-12-7v-1l3-2h1l12 7 1 1-4 2ZM333 319h-1l-12-7v-1l3-1h1l12 7h1l-4 2ZM323 306h-1l-12-7-1-1 4-2 1 1 12 6v1l-3 2ZM280 288h-2l-78-45v-1l9-5h2l78 45v1l-9 5Z"
                      class="clss-25"/>
                <path d="m195 238-9-6 9 5v1ZM171 223l-4-2 1-1 4 3h-1ZM226 243h-1l-12-7-1-1 8-4h2l11 7h1l-8 5ZM242 252h-1l-12-7s-1 0 0 0l8-5h1l12 7v1l-8 4ZM259 262h-1l-12-7-1-1 8-4h2l12 7-8 5ZM275 272l-1-1-12-7 8-5h1l12 7v1l-8 5ZM292 281h-1l-12-7-1-1 8-4h2l12 7-8 5ZM308 291l-1-1-12-6v-1l8-5h1l12 7v1l-8 5ZM346 312h-2l-32-19-1-1 8-4h2l32 19h1l-8 5ZM245 241h-1l-12-7-1-1 8-4h2l12 7v1l-8 4ZM261 251h-1l-12-7v-1l8-5 1 1 12 6v1l-8 5ZM278 260h-1l-12-7h-1l8-5h2l12 7v1l-8 4ZM294 270h-1l-12-7v-1l8-5 1 1 12 7s1 0 0 0l-8 5ZM311 279h-1l-12-7h-1l8-5h2l12 7v1l-8 4ZM327 289h-1l-12-7v-1l8-4h1l12 7c1 0 1 0 0 0l-8 5ZM344 298h-1l-12-7h-1l8-5h2l12 7v1l-8 4ZM252 233h-1l-12-7-1-1 8-5h2l12 7v1l-8 5ZM268 242h-1l-12-7v-1l8-4h1l12 7v1l-8 4ZM285 252h-1l-12-7-1-1 8-5h2l12 7v1l-8 5ZM301 261h-1l-12-7v-1l8-4h1l12 7v1l-8 4ZM318 271h-1l-12-7-1-1 8-5 2 1 12 6v1l-8 5ZM334 280h-1l-12-7 8-5h1l12 7v1l-8 4ZM351 290h-1l-12-7-1-1 8-5 2 1 12 7-8 5ZM219 214h-1l-21-12v-1l8-5 1 1 21 11v1l-8 5ZM378 293h-1l-20-12v-1l7-4h2l20 12c1 0 1 0 0 0l-8 5ZM212 222h-1l-25-14v-1l8-4h1l25 14v1l-8 4ZM193 224h-1l-17-10 8-5h1l17 10-8 5ZM238 212h-1l-12-7-1-1 8-4h2l12 7-8 5ZM254 222l-1-1-12-7 8-5h1l12 7v1l-8 5ZM271 231h-1l-12-7-1-1 8-4h2l12 7-8 5ZM288 241l-2-1-12-6v-1l8-5h1l12 7v1l-8 5ZM304 250h-1l-12-7-1-1 8-4h2l12 7v1l-8 4ZM321 260h-2l-12-7v-1l8-5h1l12 7v1l-7 5ZM337 269h-1l-12-7-1-1 8-4h2l12 7v1l-8 4ZM354 279h-2l-12-7v-1l8-5h1l12 7 1 1-8 5ZM363 287h-1l-8 5 3 2-10 6v1l8 5h2l18-11 1-1h-1l-12-7Z"
                      class="clss-25"/>
                <path d="m191 220-10-5 1-1 9 6Z" class="clss-25"/>
            </g>
            <path d="m214 68-33-20-9 65 44 26 6-49-8-22z" class="clss-40"/>
            <path d="m212 131-43-26 9-65 33 20 8 23-7 48z" class="clss-7"/>
            <path d="m211 60-3 16 11 7-8-23z" class="clss-40"/>
            <path d="m185 75-2-1-2-4c0-2 1-2 2-2l3 2 1 3c0 2-1 3-2 2Z" style="fill:url(#linear-gradient)"/>
            <path d="m207 89-16-10c-1-1-2-3-1-4l2-2 16 10 1 4-2 2Z" style="fill:url(#linear-gradient-2)"/>
            <path d="m184 86-3-2-1-3c0-2 1-3 2-2l2 1 2 4-2 2Z" style="fill:url(#linear-gradient-3)"/>
            <path d="m206 99-16-10-2-3c0-2 1-2 2-2l16 10 2 4c0 1-1 2-2 1Z" style="fill:url(#linear-gradient-4)"/>
            <path d="m182 96-2-1-2-4c0-1 1-2 2-1l3 1 1 4c0 1-1 2-2 1Z" style="fill:url(#linear-gradient-5)"/>
            <path d="m204 110-16-10c-1-1-2-2-1-4 0-1 1-2 2-1l16 10c1 0 2 2 1 3 0 2-1 2-2 2Z"
                  style="fill:url(#linear-gradient-6)"/>
            <path d="M213 118c1-6-1-13-6-17-2-1-4-2-6-1h-1l-4 2h2l-1 4c-2 6 1 13 5 16l3 2v1l3-1 1-1c2 0 3-2 4-5Z"
                  class="clss-30"/>
            <ellipse cx="200.7" cy="113.6" rx="8.1" ry="12.4" style="fill:#f44e4e" transform="rotate(-16 201 114)"/>
            <path d="m194 108 3 10v2c0 1 2 2 3 1l6-4 1-3c-1-1-2-2-3-1l-6 4 3 1-2-10-1-2-2-1c-2 0-2 1-2 3Z"
                  class="clss-10"/>
            <ellipse cx="293.9" cy="382.2" class="clss-26" rx="8.5" ry="17.1" transform="rotate(-89 294 382)"/>
            <path d="m286 323 1 1 2-1h1v-1l-2-1-1-1-1-1c-1 0-3-2-4 0l1 2 1 1 2 1Z" class="clss-14"/>
            <path d="M289 322v-2l-2-1h-2v1l3 2h1-1 1Z" class="clss-14"/>
            <path d="m289 321 1 2-2 2-1-1 2-3z" style="fill:#d0e7f4"/>
            <path d="m282 381 4-4 3-1v5l-4 2-5 1c-1-1 0-2 2-3ZM305 378l1-6 1-3c4 2 3 2 3 4l-1 5c-1 2-1 3-3 3l-1-3Z"
                  class="clss-43"/>
            <path d="m285 310-8 12c-1 2-5-1-4-2l7-12c1-2 6 0 5 2Z" class="clss-15"/>
            <path d="M287 338c0 13 1 26 3 38 0 3-4 5-5 2-2-13-3-27-3-40 0-3 5-3 5 0ZM297 342l1 17c1 6 5 8 10 11 3 1 1 5-2 4-5-3-10-6-12-12s-1-13-2-19c0-3 4-4 5-1Z"
                  class="clss-14"/>
            <path d="M298 340c-1 6-5 7-9 4-4-2-7-8-7-13 0 0 3-7 7-5 4 3 9 6 9 14Z" class="clss-43"/>
            <path d="m283 312-1 2v17s2 4 13 0l4-13-16-6Z" class="clss-15"/>
            <path d="M299 320h2c0-3 3-3-1-7l-12-5c-2 0-6-2-7 0-1 1 1 6 1 6 0 4 2-2 2 1l1 7v3l8 6 3-7 3-4Z"
                  class="clss-15"/>
            <path d="M288 308s-3 4 0 6c3 3 8-3 8-3-2-2-5-3-8-3Z" class="clss-14"/>
            <path d="m282 331-2 22v1c1 2 6 6 17 4 1 0 2 0 2-2l-1-18-7 1-9-8Z" class="clss-43"/>
            <path d="m290 310-2-7 5 2 1 5c0 1-3 3-4 0Z" class="clss-14"/>
            <rect width="8.6" height="13.9" x="285" y="294" class="clss-14" rx="3.6" ry="3.6"
                  transform="rotate(9 289 301)"/>
            <path d="M289 308h3l-3 1v-1Z" class="clss-8"/>
            <path d="m289 296 4 7v4s9-7 2-13c-5-4-11 0-11 5l5-3Z" class="clss-4"/>
            <path d="M293 305h-1l1-2h1l-1 2ZM267 327l2 1h2v-1l-1-2-1-1h-2l-1 1 1 2Z" class="clss-14"/>
            <path d="M281 325h-1v-1l-12-7h-1l-5 3-1 1 13 8 7-4Z" class="clss-25"/>
            <path d="m274 328-13-7v-1l6-3h1l13 7v1l-7 3Z" class="clss-31"/>
            <path d="m275 323-4-1 2-1 3 2h-1Z" class="clss-25"/>
            <path d="M273 320v-1l-13-7h-1l2 8v1l12 7h2l-2-8Z" class="clss-10"/>
            <path d="m274 329-13-8-1-1-1-8 13 7 1 1 1 8v1Z" class="clss-41"/>
            <path d="M267 321h-1l-1-1h1l1 1Z" class="clss-10"/>
            <path d="M295 295s4-3 7 2c4 4 7-1 9 1s2 11-4 10c-7-1-9-2-10-6 0-3-4-3-4-3l2-4Z" class="clss-4"/>
            <path d="M292 344c7-1 11-4 13-8 2-3 2-8-1-14l-2-1c-1 1-2 2-1 3 2 4 2 8 1 11l-10 6-2 2 2 1Z"
                  class="clss-14"/>
            <path d="M301 313c3 5 4 10 5 16 0 2-4 3-5 1 0-5-2-11-5-15-1-2 3-4 5-2Z" class="clss-15"/>
            <g>
                <path d="m405 170 4-6 3-1c2 4 1 3 0 5l-3 4-5 2c-1-1-1-2 1-4ZM412 178l3-7 3-2c3 4 2 3 1 5l-3 5c-1 2-2 3-4 3h1c-2-1-2-2-1-4Z"
                      class="clss-41"/>
                <path d="m433 110-7 10-3 13c-1 2-5 1-4-2l4-14 7-10c2-2 5 1 3 3Z" class="clss-14"/>
                <path d="m428 105-5 10c-1 3 6 5 7 2l4-9c1-2 0-4-2-4-1-1-3-1-4 1Z" class="clss-15"/>
                <path d="m432 129-12 4-6 3-5 6-1 8v14c0 2 2 3 4 3 2-1 2-3 2-4a57 57 0 0 1 1-18c-1 1 0 0 0 0v-1l1-1v-1h1s0-1 0 0v-1h2c-1 0 0 0 0 0l1-1 14-5c2 0 3-2 2-4l-4-2Z"
                      class="clss-43"/>
                <path d="m437 135-11 7c-2 1-4 3-5 6-2 2-2 5-3 7l-4 14c-1 4 5 5 6 1l4-13 1-3 1-2v-1l4-4 10-7c4-2 1-7-3-5Z"
                      class="clss-43"/>
                <path d="m432 142-7-4c-2-1-3-3-2-5s4-3 5-2l8 5c1 1 2 3 1 5-1 1-3 2-5 1Z" style="fill:#21275e"/>
                <path d="M424 130c1 0 4-8 4-23l19 10c-2 10-1 10-5 22l-18-9Z" class="clss-15"/>
                <path d="M435 135c0 1 7-3 8-15 0-2 0-2 2-1l2-1c-1 8 0 10-3 18 0 2-4 3-6 2l-3-3Z" class="clss-15"/>
                <path d="M437 141c-5-2-10-4-13-8-2-1-2-3 0-4s5-2 6-1l13 9c1 1 0 2-1 3v-1c-2 1-3 3-5 2Z"
                      class="clss-15"/>
                <path d="m443 137-4-5c-8 11-13 2-15 1 3 4 8 6 12 8h6c2-1 2-3 1-4ZM429 103l-1 5c0 2 1 4 3 4l18 9s2-8-1-10l-7-6c-4-3-8-5-12-2Z"
                      class="clss-15"/>
                <path d="m437 107-1-9 5 2 1 7c1 1-3 4-5 0Z" class="clss-14"/>
                <path d="m437 105 3-1s-1 2-3 2v-1Z" class="clss-8"/>
                <path d="m449 115 1 11c1 3 1 7-1 10-3 5-11 3-15 5-3 0-4-4-1-4l7-2c2 0 5 1 6-2v-9l-1-9c0-3 4-3 4 0ZM422 130l1 3-2 3c-1 2-2 2-3 1-2 0-2-2-1-3l2-3c0-1 2-2 3-1Z"
                      class="clss-14"/>
                <path d="m443 114 1 11c1 3 8 2 7-1l-1-11-4-2-3 3Z" class="clss-15"/>
                <path d="m435 140-1-1h-1l-15-8-7 3-1 1 15 9c1 1 1 3 2 2l7-4 1-2Z" class="clss-25"/>
                <path d="m426 145-18-10 9-5h1l17 10v1l-8 4h-1Z" class="clss-31"/>
                <path d="m427 139-4-3 2-1 4 3-2 1Z" class="clss-25"/>
                <path d="m426 134-1-1-18-10-1 1 1-1 1 11 1 1 17 10v1l1-1-1-11Z" class="clss-10"/>
                <path d="m426 146-17-10-1-1-2-11h1l17 9 1 2 2 11h-1Z" style="fill:#527ded"/>
                <path d="M417 136h-1l-2-2h1l2 1Z" class="clss-10"/>
                <path d="m427 140 2-3 4-1c1-1 3 0 3 1l-1 3-5 2-3-2Z" class="clss-14"/>
                <path d="M436 105c-1 2 1 4 2 4h4l1-1v-3l-1-1v2a3 3 0 0 1 0 1c-1 0-1 0 0 0h-1c1 0 1 0 0 0v1a11 11 0 0 1-1 0h-1l-1-1h-1v-2h-1Z"
                      class="clss-16"/>
                <g>
                    <rect width="10.2" height="16.5" x="431" y="89" class="clss-14" rx="4.3" ry="4.3"
                          transform="rotate(-6 436 97)"/>
                    <path d="M437 95h-5c-2-1-3-3-1-4l3-3c4-2 10 0 10 5 1 0 1 7-2 9l-1-1s1-1-1-3l-1-2c0-1-1-2-2-1Z"
                          class="clss-35"/>
                    <path d="M442 100h-2v-2h2v2Z" class="clss-14"/>
                </g>
                <path d="M432 95s5 1 6 4h2v-4c-2-3-8-1-8 0Z" class="clss-35"/>
            </g>
            <g>
                <path d="m162 410-68-40 101-58 69 39-102 59z" class="clss-7"/>
                <path d="M94 387v-17l68 40 102-59v17l-102 59-68-40z" style="fill:#99c4eb"/>
                <path d="M94 387v-17l68 40v17l-68-40z" style="fill:#c7e0f5"/>
                <path d="m150 412 11 6h2l20-11-20 10h-2l-11-5Z" style="fill:#5980ab"/>
                <path d="m217 349 8-4-36-21-7 5 35 20zM241 355l-11-7-8 4 12 7 7-4z" class="clss-6"/>
                <path d="m177 340-7-5 7-4 8 4-8 5zM166 346l-8-4 7-4 8 4-7 4zM154 353l-7-4 7-5 7 5-7 4zM142 360l-8-4 8-4 7 4-7 4z"
                      class="clss-15"/>
                <path d="m227 364-43-25-3 2 42 25 4-2zM215 371l-42-25-3 2 42 25 3-2zM203 377l-42-24-3 2 42 24 3-2zM192 385l-42-24-4 2 42 24 4-2z"
                      class="clss-39"/>
                <path d="m130 368-7-4 7-5 7 5-7 4z" class="clss-15"/>
                <path d="m180 393-42-24-3 2 42 24 3-2z" class="clss-39"/>
            </g>
            <g>
                <ellipse cx="113.7" cy="266.6" class="clss-26" rx="12.8" ry="7.6" transform="rotate(-5 114 267)"/>
                <path d="m131 206-5 12c-1 1-2 2-1 4l1 6c0 2-3 2-4 0 0-4-2-7 0-10l3-6 2-7c1-2 4-1 4 1Z" class="clss-14"/>
                <path d="m132 206-6 12c-1 3-5 2-4-1l5-12c1-3 6-2 5 1Z" class="clss-9"/>
                <path d="M133 232c-4 2-9 6-11 10-2 2-1 4-1 7l1 14c0 3-5 3-6 0v-15c-1-4 0-7 2-10 3-4 8-8 12-10 3-2 6 3 3 4Z"
                      class="clss-14"/>
                <path d="M102 251c3-4 6-9 10-12 3-2 6-4 9-3 4 1 7 2 11-1 3-2 5 3 3 5-4 2-8 3-12 2l-4-1h-1l-3 2-10 12c-2 2-6-1-3-4Z"
                      class="clss-14"/>
                <path d="M102 258v-1h1v1h-1Z" class="clss-47"/>
                <path d="m102 257 1-1h1l-1 2h-1v-1Z" class="clss-34"/>
                <path d="M107 253v-2l-3 1-10 2v1c2 3 5 3 5 3l4-2h1l-2 2h1l3-3 1-2Z" class="clss-43"/>
                <path d="M106 250h-1l-7 3c-2 0 1 5 7 1 4-2 1-4 1-4Z" class="clss-14"/>
                <path d="M127 224c-9 6-14 11-14 13 0 0 4-2 8 0 3 2 2 4 1 5l2 2c4 0 17-2 17-9v-8s-10 4-14-3Z"
                      class="clss-22"/>
                <path d="M129 206s-3 5-3 8l2 4v8s1 5 12 1l6-14-17-7Z" class="clss-9"/>
                <path d="m144 217 2-3c0-2 1-4-1-7 0 0-6-4-11-5-2 0-4 1-5 3l-1 3c-1 5 2-1 2 1a2983 2983 0 0 0 1 12l7 6 5-7 1-3Z"
                      class="clss-9"/>
                <path d="M135 202s-4 4-1 7 9-3 9-3l-8-4Z" class="clss-14"/>
                <path d="m146 214-3 3-8 3-8-4v8c-1 3 4 4 4 4 5 2 10-1 10-1l3-10 2-3Z" style="fill:#dea749"/>
                <path d="m134 202-1 2-1 3 1 2 2 1h3l1-1 2-1h1l1-1v-1h-1l-1 1h-1l-4 2a4 4 0 0 1-2-1l-1-1a18 18 0 0 1 1-4h1v-1h-2Z"
                      class="clss-22"/>
                <path d="M121 268v-1h-1 1s1 0 0 0v1Z" class="clss-47"/>
                <path d="M120 267v-2h1v2h-1Z" class="clss-34"/>
                <path d="m122 261-2-2-2 3-6 7v2l6-1c2-1 1-2 2-4l1-1v2h1v-6Z" class="clss-43"/>
                <path d="m119 259-1 1-4 6c0 1 4 3 7-4 2-3-2-3-2-3Z" class="clss-14"/>
                <path d="M128 195v4l1 1 1 1v1h1l1-1c0-1 10 5 11 4l-2-13c-1-2-8 0-9 0l-1-1-1-1-1 2-1 3Z"
                      class="clss-44"/>
                <path d="m135 205-2-8 5 1 2 7c0 1-3 4-5 0Z" class="clss-14"/>
                <path d="m135 203 2-2-2 3v-1Z" class="clss-8"/>
                <rect width="8.7" height="14.1" x="130" y="188" class="clss-14" rx="3.7" ry="3.7"
                      transform="rotate(-2 134 195)"/>
                <path d="M136 193c-1-2-4 1-6 0s-1-2 0-4l3-2c4-1 9 1 9 6 0 0 0 6-3 7l-1-1s2-2 0-4l-1-1c1-1 0 0-1-1Z"
                      class="clss-44"/>
                <path d="M139 199h-1v-3l2 1-1 2Z" class="clss-14"/>
                <path d="M129 197s0-2 6-5c5-3 0 0 0 0l-6-2s-2 3 0 7Z" class="clss-44"/>
                <path d="m147 212 1 10v8c-1 2-2 3-4 3l-9 1c-2 0-2-4 0-4h8l1-1v-16c0-2 3-3 3-1Z" class="clss-14"/>
                <path d="M147 210c2 5 1 11 1 17 0 3-5 3-5 0 1-6 1-11-1-16-1-3 4-4 5-1Z" class="clss-9"/>
                <path d="M125 231c-1 1-2 0-3-1v-5c-1-1 0-2 1-2 2 0 3 0 3 2l1 4-2 2Z" class="clss-14"/>
                <path d="m136 234-13-8h-1l-6 4h-1l14 8h1l6-3v-1Z" class="clss-25"/>
                <path d="m129 238-14-8 7-4h1l13 8-6 4h-1Z" class="clss-31"/>
                <path d="m130 233-3-2 1-1 4 2-2 1Z" class="clss-25"/>
                <path d="m129 229-1-1-14-8v1l1 8 1 1 13 7v1h1l-1-9Z" class="clss-10"/>
                <path d="m129 238-14-7v-1l-1-9 14 8v1l1 8c1 0 0 1 0 0Z" class="clss-43"/>
                <path d="m130 234 1-3 4-1c1-1 2 0 3 1l-2 3-3 1-3-1Z" class="clss-14"/>
                <path d="M122 230h-1l-1-1h1l1 1Z" class="clss-10"/>
                <path d="M136 193s4 6 4 9c-1 3-4 5-4 10-1 1 1 1 1 1l3-3c3-2 4-4 3-6l-1-12-7-1 1 2Z" class="clss-44"/>
            </g>
            <g>
                <path d="M169 302c-6-13-29-20-50-17-20 4-32 14-30 25 0 3 0 6 2 9 0 2 2 3 3 5l-7 3-2-1h-5l-36 21-2 4c1 5 4 10 8 12h5l35-21c2-1 3-3 2-5v-2l9-6c11 6 25 8 40 6 19-3 31-14 29-25 1-3 0-5-1-8Zm-63 18Zm52-6Zm-44 9Zm15 3Zm9-1Zm17-7Z"
                      class="clss-26"/>
                <path d="M162 301c-6-12-29-19-51-16-21 4-34 17-28 29 7 13 29 20 51 17 21-4 34-17 28-30Zm-69 12c-5-10 4-20 21-22 16-3 33 2 38 12 4 9-5 19-21 22-17 2-34-3-38-12Z"
                      class="clss-17"/>
                <path d="m71 338-8-5 30-17 9 5-31 17z" class="clss-43"/>
                <path d="M162 297c-6-12-29-20-51-16-21 4-34 17-28 29 7 13 29 20 51 16 21-3 34-16 28-29Zm-69 11c-5-9 4-19 21-22 16-2 33 3 38 13 4 9-5 19-21 21-17 3-34-2-38-12Z"
                      class="clss-18"/>
                <path d="M86 333c0 4-3 6-7 5-4-2-7-7-7-12-1-4 2-6 6-4s7 7 8 11Z" class="clss-17"/>
                <path d="m37 343 36-21 11 16-36 21-11-16z" class="clss-17"/>
                <path d="M50 355c0 4-3 6-7 4s-7-7-7-11c-1-4 2-6 6-5 4 2 7 7 8 12Z" class="clss-18"/>
                <path d="m128 299-23 2-2-2 2-2 23-2c1 0 2 0 2 2 0 1 0 2-2 2ZM129 305l-23 3c-2 0-3-1-3-2l2-3 23-2 2 2c1 1 0 2-1 2Z"
                      class="clss-10"/>
            </g>
            <ellipse cx="168.6" cy="184.6" class="clss-26" rx="10.8" ry="18.6" transform="rotate(-90 169 185)"/>
            <g>
                <ellipse cx="158.6" cy="184" class="clss-20" rx="7.9" ry="13.6" transform="rotate(-90 159 184)"/>
                <path d="m139 165 6 20h27l6-19-39-1z" class="clss-20"/>
                <path d="m171 166-7 19c0 2-1 3-3 4l-6 2c5 1 10 0 13-2 2-1 4-2 4-4l6-19h-7Z" style="fill:#9dbee3"/>
                <ellipse cx="158.6" cy="163.7" class="clss-10" rx="11.6" ry="20.1" transform="rotate(-90 159 164)"/>
                <ellipse cx="158.5" cy="163.3" class="clss-43" rx="10" ry="17.3" transform="rotate(-90 158 163)"/>
            </g>
            <g>
                <path d="m382 382-15-8-11-7c-3-1-8-2-13 0l-3 5c0 2 1 3 3 4l18 10a1 1 0 0 0 2 0l-1-2-18-10-1-2 2-2c3-2 8-2 9-1l2 1-3 2-2 3 2 4 19 11 5 1 5-2c2-1 2-2 2-3 0-2 0-3-2-4Zm-2 5-6 1-20-12-1-1 2-1 2-1h1l17 10a1 1 0 0 0 2-1l4 3 1 1-2 1Z"
                      class="clss-26"/>
                <path d="M374 380v-1l-18-10a1 1 0 0 1 2-2l17 10a1 1 0 0 1-1 3Z" style="fill:#bc4074"/>
                <path d="m375 387-4-1-20-11-2-4 3-3c3-2 7-2 10-1l19 11 2 4c0 1-1 3-3 3l-5 2Zm-18-18-4 1-1 1 1 1 19 12c2 1 5 0 7-1l1-1v-1l-20-11-3-1Z"
                      class="clss-15"/>
                <path d="M360 383v-1l-19-10-2-4c0-1 0-3 3-5 5-2 10-1 12 0l18 11a1 1 0 0 1-1 2l-18-11c-2-1-6-1-10 1l-1 2 1 2 18 10a1 1 0 0 1-1 3Z"
                      class="clss-15"/>
            </g>
            <path d="m341 228-78-45 20-115 79 45-21 115z" class="clss-10"/>
            <path d="m366 242-78-45 20-114 79 44-21 115z" class="clss-10"/>
            <path d="m328 139-12-7-2-4c0-2 2-3 3-2l12 7 2 4c-1 2-2 3-3 2Z" class="clss-27"/>
            <path d="m365 137-45-26c-1-1-3 0-4 2 0 1 0 3 2 4l44 26c2 1 4 0 4-1 1-2 0-4-1-5Z" class="clss-18"/>
            <path d="m374 143-45-26c-1-1-3-1-3 1-1 2-1 4 1 4l45 27c1 0 3 0 4-2 0-1 0-3-2-4Z" class="clss-18"/>
            <path d="m320 169-12-7-2-4c1-2 2-3 3-2l12 7c2 1 2 3 2 4 0 2-2 3-3 2Z" class="clss-27"/>
            <path d="m357 167-45-26c-1-1-3 0-3 1s-1 4 1 5l45 26c1 1 3 0 4-1 0-2 0-4-2-5Z" class="clss-18"/>
            <path d="m366 172-44-26c-2 0-4 0-4 2-1 1 0 3 1 4l45 26c1 1 3 1 4-1 0-2 0-4-2-5Z" class="clss-18"/>
            <path d="m313 199-13-8c-1 0-2-2-1-4 0-1 1-2 2-1l13 7 1 4-2 2Z" class="clss-27"/>
            <path d="m349 197-44-26c-2-1-4-1-4 1-1 2 0 4 1 4l45 27c1 0 3 0 4-2 0-1 0-3-2-4Z" class="clss-18"/>
            <path d="m359 202-45-26c-2-1-3 0-4 1-1 2 0 4 1 5l45 26c1 1 3 0 4-1s0-4-1-5Z" class="clss-18"/>
            <g>
                <path d="m292 115 13 7c2 1 3 0 3-2l2-14c1-2 0-4-1-5l-13-7c-2-1-3 0-3 2l-3 14 2 5ZM286 148l13 7c1 1 2 0 3-2l2-14-2-5-13-7c-1-1-3 0-3 2l-2 14c0 2 0 4 2 5ZM278 180l13 7c1 1 2 0 3-2l3-14-2-5-13-8c-1 0-3 1-3 3l-3 14 2 5Z"
                      class="clss-2"/>
                <path d="m298 115 3 1 9-10v-4c-1-1-2-2-3-1l-9 9v5Z" class="clss-45"/>
                <path d="M287 145c1 2 2 2 3 2l10-7c1 0 2-2 1-4-1-1-2-2-3-1l-11 6v4Z" class="clss-5"/>
                <path d="M298 151c2 0 2-2 1-4l-7-15c0-2-2-3-3-2v4l6 16c1 1 2 2 3 1Z" class="clss-5"/>
                <path d="M300 116c1 0 2-2 1-3l-5-21c0-1-1-3-2-2-2 0-2 1-2 3l5 20 3 3ZM283 180c1 2 2 2 3 1l10-8v-5c-1-1-2-2-3-1l-10 9v4Z"
                      class="clss-45"/>
                <path d="m286 182 1-4-4-20-3-3-2 4 5 20c0 2 1 3 3 3Z" class="clss-45"/>
            </g>
            <g>
                <path d="m246 200 2-9c1-2-1-5-3-6s-4 1-5 3l-2 9c-1 2 1 5 3 5 2 1 4 0 5-2Z" class="clss-4"/>
                <path d="m239 192 12-48 5 1-13 51-4-4z" class="clss-48"/>
                <path d="M256 145c2 1 2-1 4 1l-13 48c-1 3-3 3-4 2l13-51Z" class="clss-6"/>
                <path d="m247 195 1-2c-1 2-3 3-5 2-3-1-4-3-3-5l-1 2c-1 4 7 7 8 3Z" class="clss-31"/>
                <path d="M243 195c2 1 4 1 5-2v-2c-1 3-9 1-8-4v3c-1 2 0 4 3 5Z" class="clss-31"/>
                <path d="m260 146-3-11-5 9c0 3 8 4 8 2Z" class="clss-10"/>
                <path d="m258 135 1 5h-2c-2-1 0 1-1 1l-2-1 4-5Z" class="clss-4"/>
                <path d="m236 171 2 8 4 6c1 2 2 4 4 4 2 1 4 0 5-2l4-9-2-2-2 1a40 40 0 0 1-2 7l-1 1v1h-1s1 0 0 0c0 0 1 0 0 0 0 0-1-1 0 0l-1-1-1-2-3-6-1-1v-1l-1-5-2-1-2 2Z"
                      class="clss-14"/>
                <ellipse cx="232.9" cy="239.4" class="clss-26" rx="8.5" ry="14.8" transform="rotate(-90 233 239)"/>
                <path d="m225 231-3 4-1 3c1 1 1 2 3 2l3-2 1-5c2-3 1-4 0-4-1-1-2 0-3 2ZM240 237l-7 2v2c-1 1-1 2 1 3h3l4-3c3-2 3-3 3-4h-4Z"
                      class="clss-44"/>
                <path d="M221 162c-4 6-5 12-7 18v4l3 12c1 3 4 3 4 0a59 59 0 0 0-3-14v1-2c1-5 3-12 6-17 1-2-2-4-3-2Z"
                      class="clss-14"/>
                <path d="m220 163-5 14v2l3 2 3-2 4-12-1-5v-1l-4 2Z" class="clss-48"/>
                <path d="m225 186-2 4c-2 0-3 0-3-2s1-3 3-3c1-1 2 0 2 1Z" class="clss-10"/>
                <path d="M236 151s0 2-2 1-2-3-2-3 1-1 4 1Z" style="opacity:.46;fill:#fff"/>
                <path d="M234 152c2 2 2-1 2-1v-1l-4-2s-1 3 2 4Zm-2-3 4 2s0 2-2 1-2-3-2-3ZM237 152l-1-1v-1l1 1v1z"
                      class="clss-49"/>
                <path d="M232 149h-1v-1h1v1Z" class="clss-49"/>
                <path d="m232 150 1-1v1h-1Z" class="clss-16"/>
                <path d="M232 202c2 7 2 14 2 21l-1 16c0 4 6 4 6 0l1-16c0-8-1-16-3-23-1-3-6-2-5 2ZM221 196l2 13v8l-1 17c0 3 5 3 5 0l2-17-1-8-2-15c-1-3-6-2-5 2Z"
                      class="clss-48"/>
                <path d="m225 203-1-2 11 6c2 0 1-2 2-3l2-5v-2l-1-1c-4-2-11-9-15-7-6 3 0 11 2 14Z" class="clss-48"/>
                <path d="m221 162-1 4c0 2 2 3 3 4l17 5s1-7-2-9l-7-4c-3-2-7-3-10 0Z" class="clss-6"/>
                <path d="m229 162 1-6 4 2-1 6c0 1-4 0-4-2Z" class="clss-14"/>
                <path d="M231 146s-4-2-4 4c0 5 3 9 7 11 2 1 5-1 5-3v-9c0-3-2-2-5-2l-3-1Z" class="clss-14"/>
                <path d="M229 159s-4-2-4-8c0-7 7-6 10-7 2 0 3 0 5 2 1 1 0 4-2 4l-1 3-1 3-4 4-3-1Z" class="clss-35"/>
                <path d="M220 193v-29l20 9c-1 8-2 15-1 26l-19-6Z" class="clss-6"/>
                <path d="M233 201c-5-2-9-4-12-7-1-1-1-2 1-3h5l12 7c1 1 1 2-1 3h-5Z" class="clss-6"/>
                <path d="m240 173-4-2v26l-1 2h-5l-7-3 10 5h5l1-2c-1-11 0-18 1-26Z" class="clss-6"/>
                <path d="M236 165c-5-1-8 2-9-5l2 1c1 1 3 2 4 1l2 1 1 2Z" class="clss-10"/>
                <path d="m237 155-2 2-1-2 1-2 2 2Z" class="clss-14"/>
                <circle cx="234.6" cy="146" r="2.7" class="clss-35"/>
                <circle cx="237.7" cy="145.7" r="2.7" class="clss-35"/>
                <circle cx="238.1" cy="148.4" r="2.7" class="clss-35"/>
                <path d="M234 171c2 9 6 15 10 18 2 1 4-3 3-5-4-3-6-9-7-15-1-1-2-2-4-1l-2 3Z" class="clss-6"/>
            </g>
            <g>
                <path d="M305 256c-9-5-23-6-32 0-9 5-10 13-1 18 9 6 24 6 33 1 10-5 9-14 0-19Z"
                      style="fill:#4a70d6;opacity:.27"/>
                <path d="M298 255c-9-5-22-5-31-1-9 5-9 13 0 18 8 5 22 6 31 1s8-13 0-18Z" class="clss-30"/>
                <path d="M298 250c-9-5-23-6-31-1-9 5-9 13-1 18 9 5 23 5 31 1 10-6 9-13 1-18Z" class="clss-15"/>
                <path d="m279 250 5 15M290 255l-16 3" class="clss-1"/>
            </g>
            <g>
                <ellipse cx="401.1" cy="352.1" class="clss-26" rx="19.3" ry="11.1"/>
                <path d="m393 354-4-1-7 3v3l2 1 10-3v-3h-1ZM396 353l4 1 4 7-1 2h-2l-7-7 1-3h1ZM399 339s-10-6-13-6c-4 1-4 2-5 3-1 2 14 13 22 13l2 1s17 1 16-1c-1-3-5-5-7-7l-15-3Z"
                      class="clss-43"/>
                <path d="M382 336s3-3 10 8l8 12-7-2s-15-15-11-18Z" class="clss-37"/>
                <path d="M394 321c0 5 2 9-1 13l-1 1-1-2-2-5c0-2-3-2-3 0-1 4 3 13 8 11 3-2 4-6 4-8v-10c0-2-4-2-4 0Z"
                      class="clss-13"/>
                <path d="M398 315s-3 0-4 4l-1 6 1 1 4 2v-13Z" class="clss-9"/>
                <path d="M396 318v4c0 1 1 3 3 3l17 3s0-7-3-8l-7-3c-3-2-8-2-10 1Z" class="clss-9"/>
                <path d="M396 323v7l1 7-2 2 5 6 11-2c3-1 3-13 3-13l-5-9-13 2Z" class="clss-9"/>
                <path d="m400 345 11-2c3-1 3-13 3-13l-3-5c0-1-2 0-1 1 0 8-1 16-10 19Z" class="clss-9"/>
                <path d="M410 325c2 5 4 10 3 16l-2 4-5 4c-1 2 1 4 3 3 3-4 7-5 8-10l-1-10c0-3-2-6-3-8-1-3-4-2-3 1Z"
                      class="clss-13"/>
                <path d="M411 319s4 2 5 5l2 5c0 2-1 3-2 3l-2 1-3-2-3-8 3-4Z" class="clss-9"/>
                <path d="m393 332-4-2-1-1-1-9 4 1 1 1 1 9v1Z" class="clss-10"/>
                <path d="m389 324-1 5-1-9 4 2h1l-3 2Z" class="clss-10"/>
                <path d="m393 332-5-2-2-9 1-1 4 2v1l2 9Z" class="clss-37"/>
                <path d="M392 323v1-1ZM392 324v1-1Z" class="clss-36"/>
                <path d="m387 330-2-1v-3c-1-1 0-2 1-2l2 1 1 3-2 2Z" class="clss-13"/>
                <path d="m403 316 6 2s0 5-4 4-2-6-2-6Z" class="clss-10"/>
                <path d="m403 319-3-7 5 1 3 5c0 1-3 4-5 1Z" class="clss-13"/>
                <path d="m403 317 1-1-1 2v-1Z" class="clss-8"/>
                <rect width="8.9" height="14.4" x="396" y="304" class="clss-13" rx="3.8" ry="3.8"
                      transform="rotate(-11 401 311)"/>
                <path d="m401 308-4 2c-2-1-2-3-1-5l2-2c4-2 9-1 10 4 0 0 1 5-1 8l-2-1s2-2-1-3l-1-2-2-1Z"
                      class="clss-44"/>
                <path d="M407 313h-2v-2h2v2Z" class="clss-13"/>
                <path d="M397 305s-2-1-2 4v3l1 1c1-1 4-4 3-6 0-2-2-2-2-2ZM402 308l1 4c1-1 2-3 1-4h-2Z" class="clss-44"/>
                <path d="m403 309 1 5 2-4c-1-2-3-1-3-1Z" class="clss-44"/>
                <path d="M421 348s-2-3-8-1l-21 6s-1 4 1 5c4 0 25-3 28-7v-3Z" class="clss-37"/>
            </g>
            <path d="M159 157c1-13 11-37 11-37-15 6-15 21-15 21l4 16Z" class="clss-19"/>
            <path d="M155 146c1-14-7-38-7-38 14 6 12 21 12 21l-5 17Z" class="clss-19"/>
            <path d="M177 128c-12 3-19 26-19 26-2-28-20-35-20-35 6 8 12 33 14 42 1 3 4 5 8 5 3-1 5-3 5-6 2-12 12-32 12-32Z"
                  class="clss-19"/>
        </g>
    </g>
</svg>
