<?xml version="1.0" standalone="no"?><!DOCTYPE svg PUBLIC "-//W3C//DTD SVG 1.1//EN"
        "http://www.w3.org/Graphics/SVG/1.1/DTD/svg11.dtd">
<svg t="1660704552838" class="icon" viewBox="0 0 1024 1024" version="1.1" xmlns="http://www.w3.org/2000/svg" p-id="6688"
     width="200" height="200">
    <defs>
        <style type="text/css"></style>
    </defs>
    <path d="M586.752 325.802667c-80.213333 0-160.426667 0-160.597333 0-0.170667 0.170667-103.936 1.536-105.813333 105.984l0 160.597333c0.170667 0.170667 1.536 103.936 105.813333 105.813333 80.213333 0 160.597333 0 160.597333 0 0.170667-0.170667 103.936-1.536 105.813333-105.813333 0-80.213333 0-160.426667 0-160.597333C692.565333 431.616 691.2 327.68 586.752 325.802667zM641.536 481.962667c0 30.208 0 70.314667 0 110.421333-0.170667 56.149333-54.613333 53.248-54.784 54.613333 0 0-80.213333 0-160.597333 0-56.32 0-53.248-54.613333-54.784-54.613333L371.370667 431.786667c0-56.32 54.613333-53.248 54.784-54.784 0 0 80.213333 0 160.597333 0 56.149333 0 53.248 54.613333 54.784 54.784C641.536 431.786667 641.536 451.754667 641.536 481.962667z"
          p-id="6689" fill="#515151"></path>
    <path d="M896.512 532.138667c14.165333 0 25.6-11.434667 25.6-25.6 0-14.165333-11.434667-25.6-25.6-25.6l-84.650667 0c0-17.749333 0-33.792 0-47.616l84.650667 0c14.165333 0 25.6-11.434667 25.6-25.6s-11.434667-25.6-25.6-25.6l-84.650667 0c0-1.024 0-1.706667 0-1.706667-0.170667-0.170667-1.536-160.768-162.816-162.816-5.973333 0-12.117333 0-18.090667 0L630.954667 127.488c0-14.165333-11.434667-25.6-25.6-25.6-14.165333 0-25.6 11.434667-25.6 25.6l0 90.282667c-16.384 0-32.256 0-47.616 0L532.138667 127.488c0-14.165333-11.434667-25.6-25.6-25.6s-25.6 11.434667-25.6 25.6l0 90.282667c-17.749333 0-33.621333 0-47.616 0L433.322667 127.488c0-14.165333-11.434667-25.6-25.6-25.6-14.165333 0-25.6 11.434667-25.6 25.6l0 90.282667c-4.437333 0-7.168 0-7.168 0-0.170667 0.170667-160.768 1.536-162.645333 162.816l0 1.706667L127.488 382.293333c-14.165333 0-25.6 11.434667-25.6 25.6s11.434667 25.6 25.6 25.6l84.650667 0 0 47.616L127.488 481.109333c-14.165333 0-25.6 11.434667-25.6 25.6 0 14.165333 11.434667 25.6 25.6 25.6l84.650667 0 0 47.616L127.488 579.925333c-14.165333 0-25.6 11.434667-25.6 25.6s11.434667 25.6 25.6 25.6l84.650667 0 0 23.722667c0.170667 0.170667 1.536 160.768 162.645333 162.816 2.389333 0 4.778667 0 7.168 0l0 79.189333c0 14.165333 11.434667 25.6 25.6 25.6 14.165333 0 25.6-11.434667 25.6-25.6l0-79.189333c16.213333 0 32.256 0 47.616 0l0 79.189333c0 14.165333 11.434667 25.6 25.6 25.6s25.6-11.434667 25.6-25.6l0-79.189333c17.237333 0 33.450667 0 47.616 0l0 79.189333c0 14.165333 11.434667 25.6 25.6 25.6 14.165333 0 25.6-11.434667 25.6-25.6l0-79.189333c11.434667 0 18.090667 0 18.090667 0 0.170667-0.170667 160.768-1.536 162.816-162.816 0-7.850667 0-15.701333 0-23.722667l84.650667 0c14.165333 0 25.6-11.434667 25.6-25.6s-11.434667-25.6-25.6-25.6l-84.650667 0c0-16.384 0-32.426667 0-47.616L896.512 532.309333zM760.661333 654.677333c-0.170667 112.981333-111.445333 110.08-111.616 111.616 0 0-137.216 0-274.261333 0-112.981333-0.170667-110.08-111.445333-111.616-111.616L263.168 380.416c0.170667-112.981333 111.445333-110.08 111.616-111.616 0 0 137.216 0 274.261333 0 112.981333 0.170667 110.08 111.445333 111.616 111.616C760.661333 380.416 760.661333 586.069333 760.661333 654.677333z"
          p-id="6690" fill="#515151"></path>
</svg>
