<svg id="图层_1" data-name="图层 1" xmlns="http://www.w3.org/2000/svg" viewBox="0 0 58 58">
    <defs>
        <style>
            .cls-1{fill:#edf1f5;}.cls-2{fill:url(#未命名的渐变_30);}.cls-3{fill:#fff;}.cls-4{fill:#3f485b;}.cls-5{fill:#d1dce5;}
        </style>
        <linearGradient id="未命名的渐变_30" x1="14.35" y1="38.51" x2="43.65" y2="38.51" gradientUnits="userSpaceOnUse">
            <stop offset="0" stop-color="#73a1ff"/>
            <stop offset="1" stop-color="#4877e6"/>
        </linearGradient>
    </defs>
    <circle class="cls-1" cx="29" cy="29" r="29"/>
    <polygon class="cls-2" points="41.27 32.95 16.73 32.95 14.35 44.08 43.65 44.08 41.27 32.95"/>
    <path class="cls-3" d="M36.69,14A10.87,10.87,0,0,0,21.31,29.32L29,37l7.69-7.69A10.88,10.88,0,0,0,36.69,14Z"/>
    <path class="cls-4"
          d="M29,37.48h0a.47.47,0,0,1-.33-.14L21,29.66a11.34,11.34,0,1,1,16,0l-7.69,7.68A.47.47,0,0,1,29,37.48Zm0-26.24A10.4,10.4,0,0,0,21.64,29L29,36.35,36.36,29A10.4,10.4,0,0,0,29,11.24Z"/>
    <circle class="cls-5" cx="29" cy="21.4" r="4.31"/>
</svg>
