<svg id="图层_1" data-name="图层 1" xmlns="http://www.w3.org/2000/svg" viewBox="0 0 58 58">
    <defs>
        <style>.cls-1{fill:url(#未命名的渐变_30);}.cls-2{fill:#fff;}</style>
        <linearGradient id="未命名的渐变_30" y1="29" x2="58" y2="29" gradientUnits="userSpaceOnUse">
            <stop offset="0" stop-color="#73a1ff"/>
            <stop offset="1" stop-color="#4877e6"/>
        </linearGradient>
    </defs>
    <circle class="cls-1" cx="29" cy="29" r="29"/>
    <path class="cls-2"
          d="M44.84,45H14.34a.5.5,0,0,1-.51-.5V21.8a.51.51,0,0,1,.51-.51h30.5a.5.5,0,0,1,.5.51V44.52A.5.5,0,0,1,44.84,45Zm-30-1H44.33V22.3H14.84Z"/>
    <rect class="cls-2" x="13.87" y="13.5" width="31.42" height="6.25"/>
    <path class="cls-2" d="M39.24,30.22H19.91a.47.47,0,1,1,0-.94H39.24a.47.47,0,1,1,0,.94Z"/>
    <path class="cls-2" d="M39.24,37.23H19.91a.47.47,0,0,1,0-.94H39.24a.47.47,0,0,1,0,.94Z"/>
    <circle class="cls-2" cx="33.72" cy="29.75" r="2.12"/>
    <circle class="cls-2" cx="25.6" cy="36.76" r="2.12"/>
</svg>
