<svg id="图层_1" data-name="图层 1" xmlns="http://www.w3.org/2000/svg" viewBox="0 0 32 32">
    <defs>
        <style>.cls-1{fill:#fff;}.cls-2{fill:#3f485b;}.cls-3{fill:url(#未命名的渐变_30);}</style>
        <linearGradient id="未命名的渐变_30" x1="16.6" y1="24.1" x2="30.09" y2="24.1" gradientUnits="userSpaceOnUse">
            <stop offset="0" stop-color="#73a1ff"/>
            <stop offset="1" stop-color="#4877e6"/>
        </linearGradient>
    </defs>
    <rect class="cls-1" x="2.41" y="1.65" width="24.71" height="26.7"/>
    <path class="cls-2"
          d="M27.11,28.85H2.41a.5.5,0,0,1-.5-.5V1.65a.5.5,0,0,1,.5-.5h24.7a.5.5,0,0,1,.5.5v26.7A.5.5,0,0,1,27.11,28.85Zm-24.2-1h23.7V2.15H2.91Z"/>
    <circle class="cls-3" cx="23.35" cy="24.1" r="6.75"/>
    <path class="cls-1"
          d="M22.43,27.66a.47.47,0,0,1-.35-.15L18.58,24a.51.51,0,0,1,0-.71.5.5,0,0,1,.71,0l3.14,3.14L27,21.93a.5.5,0,0,1,.71,0,.51.51,0,0,1,0,.71l-4.88,4.87A.47.47,0,0,1,22.43,27.66Z"/>
    <path class="cls-2"
          d="M22.12,8.67H7.3a.51.51,0,0,1-.5-.5.5.5,0,0,1,.5-.5H22.12a.5.5,0,0,1,.5.5A.51.51,0,0,1,22.12,8.67Z"/>
    <path class="cls-2" d="M22.12,13.26H7.3a.5.5,0,1,1,0-1H22.12a.5.5,0,0,1,0,1Z"/>
    <path class="cls-2"
          d="M15.38,17.85H7.3a.5.5,0,0,1-.5-.5.51.51,0,0,1,.5-.5h8.08a.5.5,0,0,1,.5.5A.5.5,0,0,1,15.38,17.85Z"/>
</svg>
