<svg id="图层_1" data-name="图层 1" xmlns="http://www.w3.org/2000/svg" viewBox="0 0 58 58">
    <defs>
        <style>.cls-1{fill:url(#未命名的渐变_30);}.cls-2{fill:#fff;}</style>
        <linearGradient id="未命名的渐变_30" y1="29" x2="58" y2="29" gradientUnits="userSpaceOnUse">
            <stop offset="0" stop-color="#73a1ff"/>
            <stop offset="1" stop-color="#4877e6"/>
        </linearGradient>
    </defs>
    <circle class="cls-1" cx="29" cy="29" r="29"/>
    <path class="cls-2"
          d="M29,45.34h0a.51.51,0,0,1-.43-.23l-2.71-4.23H12.29a.5.5,0,0,1-.5-.5V16.62a.5.5,0,0,1,.5-.5H45.71a.5.5,0,0,1,.5.5V40.38a.5.5,0,0,1-.5.5H32.14l-2.72,4.23A.48.48,0,0,1,29,45.34ZM12.8,39.87H26.14a.5.5,0,0,1,.42.23L29,43.9l2.44-3.8a.51.51,0,0,1,.43-.23H45.2V17.13H12.8Z"/>
    <polygon class="cls-2"
             points="19.6 35.49 16.95 35.49 16.95 21.64 30.81 21.64 30.81 24.26 29.8 24.26 29.8 22.65 17.96 22.65 17.96 34.48 19.6 34.48 19.6 35.49"/>
    <rect class="cls-2" x="22.39" y="25.97" width="18.81" height="2.09"/>
    <rect class="cls-2" x="22.39" y="29.69" width="18.81" height="2.09"/>
    <rect class="cls-2" x="22.39" y="33.41" width="18.81" height="2.09"/>
</svg>
