<svg xmlns:xlink="http://www.w3.org/1999/xlink" id="图层_1" data-name="图层 1" xmlns="http://www.w3.org/2000/svg"
     viewBox="0 0 38 38">
    <defs>
        <style>
            .cls-1{fill:url(#未命名的渐变_30);}.cls-2{fill:#fff;}.cls-3{fill:url(#未命名的渐变_30-2);}.cls-4{fill:url(#未命名的渐变_30-3);}.cls-5{fill:url(#未命名的渐变_30-4);}.cls-6{fill:url(#未命名的渐变_30-5);}.cls-7{fill:url(#未命名的渐变_30-6);}.cls-8{fill:url(#未命名的渐变_30-7);}
        </style>
        <linearGradient id="未命名的渐变_30" x1="35.07" y1="2.87" x2="2.93" y2="35.01" gradientUnits="userSpaceOnUse">
            <stop offset="0" stop-color="#73a1ff"/>
            <stop offset="1" stop-color="#4877e6"/>
        </linearGradient>
        <linearGradient id="未命名的渐变_30-2" x1="17.5" y1="12.17" x2="26.72" y2="12.17" xlink:href="#未命名的渐变_30"/>
        <linearGradient id="未命名的渐变_30-3" x1="17.5" y1="14.95" x2="26.72" y2="14.95" xlink:href="#未命名的渐变_30"/>
        <linearGradient id="未命名的渐变_30-4" x1="17.5" y1="19.13" x2="26.72" y2="19.13" xlink:href="#未命名的渐变_30"/>
        <linearGradient id="未命名的渐变_30-5" x1="17.5" y1="21.91" x2="26.72" y2="21.91" xlink:href="#未命名的渐变_30"/>
        <linearGradient id="未命名的渐变_30-6" x1="11.39" y1="13.56" x2="15.28" y2="13.56" xlink:href="#未命名的渐变_30"/>
        <linearGradient id="未命名的渐变_30-7" x1="11.39" y1="20.52" x2="15.28" y2="20.52" xlink:href="#未命名的渐变_30"/>
    </defs>
    <rect class="cls-1" y="-0.06" width="38" height="38" rx="10"/>
    <rect class="cls-2" x="8.43" y="7.28" width="21.13" height="23.33" rx="0.84"/>
    <rect class="cls-3" x="17.5" y="11.62" width="9.22" height="1.11"/>
    <rect class="cls-4" x="17.5" y="14.4" width="9.22" height="1.11"/>
    <rect class="cls-5" x="17.5" y="18.58" width="9.22" height="1.11"/>
    <rect class="cls-6" x="17.5" y="21.36" width="9.22" height="1.11"/>
    <rect class="cls-7" x="11.39" y="11.62" width="3.89" height="3.89"/>
    <rect class="cls-8" x="11.39" y="18.58" width="3.89" height="3.89"/>
</svg>
