<svg id="12" data-name="12" xmlns="http://www.w3.org/2000/svg" viewBox="0 0 58 58">
    <defs>
        <style>
            .cls-1{fill:#edf1f5;}.cls-2{fill:url(#未命名的渐变_30);}.cls-3{fill:#fff;}.cls-4{fill:#3f485b;}.cls-5{fill:#d1dce5;}
        </style>
        <linearGradient id="未命名的渐变_30" x1="27.02" y1="30.02" x2="48.75" y2="30.02" gradientUnits="userSpaceOnUse">
            <stop offset="0" stop-color="#73a1ff"/>
            <stop offset="1" stop-color="#4877e6"/>
        </linearGradient>
    </defs>
    <circle class="cls-1" cx="29" cy="29" r="29"/>
    <polyline class="cls-2" points="32.82 43.21 35.08 45.47 48.75 31.79 31.54 14.58 27.02 14.58"/>
    <polygon class="cls-3" points="13.35 14.58 13.35 28.26 30.56 45.47 44.23 31.79 27.02 14.58 13.35 14.58"/>
    <path class="cls-4"
          d="M30.56,46a.54.54,0,0,1-.36-.14L13,28.61a.47.47,0,0,1-.15-.35V14.58a.51.51,0,0,1,.5-.51H27a.53.53,0,0,1,.36.15L44.59,31.44a.47.47,0,0,1,.15.35.49.49,0,0,1-.15.36L30.91,45.83A.5.5,0,0,1,30.56,46ZM13.85,28.05,30.56,44.76l13-13L26.81,15.08h-13Z"/>
    <path class="cls-5" d="M23.25,24.48a2.82,2.82,0,1,1,0-4A2.81,2.81,0,0,1,23.25,24.48Z"/>
</svg>
