<svg xmlns:xlink="http://www.w3.org/1999/xlink" id="图层_1" data-name="图层 1" xmlns="http://www.w3.org/2000/svg"
     viewBox="0 0 38 38">
    <defs>
        <style>.cls-1{fill:url(#未命名的渐变_30);}.cls-2{fill:#fff;}.cls-3{fill:url(#未命名的渐变_30-2);}</style>
        <linearGradient id="未命名的渐变_30" x1="35.07" y1="2.93" x2="2.93" y2="35.07" gradientUnits="userSpaceOnUse">
            <stop offset="0" stop-color="#73a1ff"/>
            <stop offset="1" stop-color="#4877e6"/>
        </linearGradient>
        <linearGradient id="未命名的渐变_30-2" x1="23.25" y1="24.95" x2="29.25" y2="24.95" xlink:href="#未命名的渐变_30"/>
    </defs>
    <rect class="cls-1" width="38" height="38" rx="10"/>
    <circle class="cls-2" cx="26.25" cy="24.95" r="4.89"/>
    <polygon class="cls-3"
             points="29.25 25.6 26.91 25.6 26.91 27.94 25.59 27.94 25.59 25.6 23.25 25.6 23.25 24.29 25.59 24.29 25.59 21.95 26.91 21.95 26.91 24.29 29.25 24.29 29.25 25.6"/>
    <path class="cls-2"
          d="M7.88,10.33V27.59A1.15,1.15,0,0,0,9,28.74H19.53v-2.3H10.67a.44.44,0,0,1-.44-.44V16.08a.45.45,0,0,1,.45-.45H27.23a.47.47,0,0,1,.46.46v2.12H30V10.33a1.14,1.14,0,0,0-1.15-1.15H9A1.14,1.14,0,0,0,7.88,10.33Z"/>
</svg>
