<svg xmlns:xlink="http://www.w3.org/1999/xlink" id="图层_1" data-name="图层 1" xmlns="http://www.w3.org/2000/svg"
     viewBox="0 0 58 58">
    <defs>
        <style>
            .cls-1{fill:#edf1f5;}.cls-2{fill:url(#未命名的渐变_37);}.cls-3{fill:#fff;}.cls-4{fill:#3f485b;}.cls-5{fill:#d1dce5;}.cls-6{fill:url(#未命名的渐变_30);}.cls-7{fill:url(#未命名的渐变_30-2);}.cls-8{fill:url(#未命名的渐变_30-3);}
        </style>
        <linearGradient id="未命名的渐变_37" x1="14.02" y1="29" x2="43.98" y2="29" gradientUnits="userSpaceOnUse">
            <stop offset="0" stop-color="#4877e6"/>
            <stop offset="1" stop-color="#73a1ff"/>
        </linearGradient>
        <linearGradient id="未命名的渐变_30" x1="19.93" y1="26.86" x2="33.79" y2="26.86" gradientUnits="userSpaceOnUse">
            <stop offset="0" stop-color="#73a1ff"/>
            <stop offset="1" stop-color="#4877e6"/>
        </linearGradient>
        <linearGradient id="未命名的渐变_30-2" x1="28.13" y1="30.96" x2="40.1" y2="30.96" xlink:href="#未命名的渐变_30"/>
        <linearGradient id="未命名的渐变_30-3" x1="25.14" y1="27.3" x2="29.48" y2="27.3" xlink:href="#未命名的渐变_30"/>
    </defs>
    <circle class="cls-1" cx="29" cy="29" r="29"/>
    <polygon class="cls-2"
             points="43.98 43.98 17.41 43.98 14.02 40.59 17.41 17.41 40.59 14.02 43.98 17.41 43.98 43.98"/>
    <rect class="cls-3" x="14.02" y="14.02" width="26.57" height="26.57"/>
    <path class="cls-4"
          d="M40.59,41.07H14a.49.49,0,0,1-.49-.48V14a.49.49,0,0,1,.49-.49H40.59a.49.49,0,0,1,.48.49V40.59A.49.49,0,0,1,40.59,41.07Zm-26.09-1H40.1V14.5H14.5Z"/>
    <rect class="cls-5" x="23.28" y="23.42" width="8.09" height="8.09"/>
    <polygon class="cls-6"
             points="22.58 33.79 19.93 33.79 19.93 19.93 33.79 19.93 33.79 22.55 32.78 22.55 32.78 20.94 20.94 20.94 20.94 32.78 22.58 32.78 22.58 33.79"/>
    <polygon class="cls-7" points="40.1 33.79 33.07 33.79 28.13 28.84 28.84 28.13 33.49 32.78 40.1 32.78 40.1 33.79"/>
    <path class="cls-8"
          d="M27.31,29.47a2.17,2.17,0,1,1,2.17-2.17A2.17,2.17,0,0,1,27.31,29.47Zm0-3.33a1.16,1.16,0,1,0,1.16,1.16A1.16,1.16,0,0,0,27.31,26.14Z"/>
</svg>
