<svg id="图层_1" data-name="图层 1" xmlns="http://www.w3.org/2000/svg" viewBox="0 0 58 58">
    <defs>
        <style>
            .cls-1{fill:#edf1f5;}.cls-2{fill:#fff;}.cls-3{fill:#3f485b;}.cls-4{fill:url(#未命名的渐变_30);}.cls-5{fill:#d1dce5;}
        </style>
        <linearGradient id="未命名的渐变_30" x1="13.87" y1="16.62" x2="45.29" y2="16.62" gradientUnits="userSpaceOnUse">
            <stop offset="0" stop-color="#73a1ff"/>
            <stop offset="1" stop-color="#4877e6"/>
        </linearGradient>
    </defs>
    <circle class="cls-1" cx="29" cy="29" r="29"/>
    <rect class="cls-2" x="14.34" y="21.8" width="30.5" height="22.72"/>
    <path class="cls-3"
          d="M44.84,45H14.34a.47.47,0,0,1-.47-.47V21.8a.47.47,0,0,1,.47-.47h30.5a.47.47,0,0,1,.47.47V44.52A.47.47,0,0,1,44.84,45Zm-30-.94H44.37V22.27H14.81Z"/>
    <rect class="cls-4" x="13.87" y="13.5" width="31.42" height="6.25"/>
    <path class="cls-3" d="M39.24,30.22H19.91a.47.47,0,1,1,0-.94H39.24a.47.47,0,1,1,0,.94Z"/>
    <path class="cls-3" d="M39.24,37.23H19.91a.47.47,0,0,1,0-.94H39.24a.47.47,0,0,1,0,.94Z"/>
    <circle class="cls-5" cx="33.72" cy="29.75" r="2.12"/>
    <circle class="cls-5" cx="25.6" cy="36.76" r="2.12"/>
</svg>
