<?xml version="1.0" standalone="no"?><!DOCTYPE svg PUBLIC "-//W3C//DTD SVG 1.1//EN"
        "http://www.w3.org/Graphics/SVG/1.1/DTD/svg11.dtd">
<svg t="1660717334265" class="icon" viewBox="0 0 1024 1024" version="1.1" xmlns="http://www.w3.org/2000/svg" p-id="7451"
     width="200" height="200">
    <defs>
        <style type="text/css"></style>
    </defs>
    <path d="M183.637333 309.333333a32 32 0 0 1 4.352 63.701334l-4.352 0.298666H136.533333c-33.365333 0-58.538667 18.346667-61.568 38.613334l-0.298666 4.053333v193.834667a31.786667 31.786667 0 0 1 6.314666-1.536L85.333333 608h853.333334c3.754667 0 7.381333 0.64 10.709333 1.834667L949.333333 416c0-20.394667-23.125333-40.064-55.296-42.410667L887.466667 373.333333h-46.890667a32 32 0 0 1-4.352-63.701333l4.352-0.298667H887.466667c65.578667 0 121.6 42.581333 125.610666 99.968l0.256 6.698667v448c0 58.453333-53.546667 103.253333-118.357333 106.496l-7.509333 0.170667H136.533333c-65.578667 0-121.6-42.581333-125.610666-99.968L10.666667 864V416c0-58.453333 53.546667-103.253333 118.357333-106.496L136.533333 309.333333h47.104z m759.381334 362.368L938.666667 672H85.333333a31.957333 31.957333 0 0 1-10.666666-1.834667v193.834667c0 20.394667 23.125333 40.064 55.296 42.410667l6.570666 0.256h750.933334c33.365333 0 58.538667-18.346667 61.568-38.613334l0.298666-4.053333 0.042667-193.834667a31.786667 31.786667 0 0 1-6.4 1.536z"
          p-id="7452" fill="#515151"></path>
    <path d="M523.946667 362.666667m-53.333334 0a53.333333 53.333333 0 1 0 106.666667 0 53.333333 53.333333 0 1 0-106.666667 0Z"
          p-id="7453" fill="#515151"></path>
    <path d="M523.946667 202.666667c49.621333 0 96.170667 20.053333 130.048 54.954666a32 32 0 1 1-45.866667 44.629334A116.906667 116.906667 0 0 0 523.946667 266.666667a116.906667 116.906667 0 0 0-84.138667 35.541333 32 32 0 1 1-45.866667-44.586667A180.864 180.864 0 0 1 523.946667 202.666667z"
          p-id="7454" fill="#515151"></path>
    <path d="M523.946667 96a287.146667 287.146667 0 0 1 205.482666 86.186667 32 32 0 0 1-45.653333 44.842666A223.146667 223.146667 0 0 0 523.946667 160a223.146667 223.146667 0 0 0-159.786667 66.986667 32 32 0 0 1-45.653333-44.8A287.146667 287.146667 0 0 1 523.946667 96z"
          p-id="7455" fill="#515151"></path>
</svg>
