<?xml version="1.0" standalone="no"?><!DOCTYPE svg PUBLIC "-//W3C//DTD SVG 1.1//EN"
        "http://www.w3.org/Graphics/SVG/1.1/DTD/svg11.dtd">
<svg t="1660704493568" class="icon" viewBox="0 0 1024 1024" version="1.1" xmlns="http://www.w3.org/2000/svg" p-id="4463"
     width="200" height="200">
    <defs>
        <style type="text/css"></style>
    </defs>
    <path d="M706.206897 792.717241H317.793103c-49.434483 0-88.275862-38.841379-88.275862-88.275862v-388.413793c0-49.434483 38.841379-88.275862 88.275862-88.275862h388.413794c49.434483 0 88.275862 38.841379 88.275862 88.275862v388.413793c0 49.434483-38.841379 88.275862-88.275862 88.275862z m-388.413794-529.655172c-30.013793 0-52.965517 22.951724-52.965517 52.965517v388.413793c0 30.013793 22.951724 52.965517 52.965517 52.965518h388.413794c30.013793 0 52.965517-22.951724 52.965517-52.965518v-388.413793c0-30.013793-22.951724-52.965517-52.965517-52.965517H317.793103z"
          p-id="4464" fill="#515151"></path>
    <path d="M662.068966 713.268966h-300.137932c-30.013793 0-52.965517-22.951724-52.965517-52.965518v-300.137931c0-30.013793 22.951724-52.965517 52.965517-52.965517h300.137932c30.013793 0 52.965517 22.951724 52.965517 52.965517v300.137931c0 30.013793-22.951724 52.965517-52.965517 52.965518z m-300.137932-370.758621c-10.593103 0-17.655172 7.062069-17.655172 17.655172v300.137931c0 10.593103 7.062069 17.655172 17.655172 17.655173h300.137932c10.593103 0 17.655172-7.062069 17.655172-17.655173v-300.137931c0-10.593103-7.062069-17.655172-17.655172-17.655172h-300.137932z"
          p-id="4465" fill="#515151"></path>
    <path d="M628.524138 651.475862h-123.586207c-14.124138 0-26.482759-12.358621-26.482759-26.482759v-52.965517c0-14.124138 12.358621-26.482759 26.482759-26.482758h123.586207c14.124138 0 26.482759 12.358621 26.482759 26.482758v52.965517c0 14.124138-10.593103 26.482759-26.482759 26.482759z m-123.586207-88.275862c-5.296552 0-8.827586 3.531034-8.827586 8.827586v52.965517c0 5.296552 3.531034 8.827586 8.827586 8.827587h123.586207c5.296552 0 8.827586-3.531034 8.827586-8.827587v-52.965517c0-5.296552-3.531034-8.827586-8.827586-8.827586h-123.586207zM229.517241 360.165517H123.586207c-10.593103 0-17.655172-7.062069-17.655173-17.655172s7.062069-17.655172 17.655173-17.655173h105.931034c10.593103 0 17.655172 7.062069 17.655173 17.655173s-7.062069 17.655172-17.655173 17.655172zM229.517241 536.717241H123.586207c-10.593103 0-17.655172-7.062069-17.655173-17.655172s7.062069-17.655172 17.655173-17.655172h105.931034c10.593103 0 17.655172 7.062069 17.655173 17.655172s-7.062069 17.655172-17.655173 17.655172zM229.517241 700.910345H123.586207c-10.593103 0-17.655172-7.062069-17.655173-17.655173s7.062069-17.655172 17.655173-17.655172h105.931034c10.593103 0 17.655172 7.062069 17.655173 17.655172s-7.062069 17.655172-17.655173 17.655173zM900.413793 360.165517h-114.758621c-10.593103 0-17.655172-7.062069-17.655172-17.655172s7.062069-17.655172 17.655172-17.655173H900.413793c10.593103 0 17.655172 7.062069 17.655173 17.655173s-7.062069 17.655172-17.655173 17.655172zM900.413793 536.717241h-114.758621c-10.593103 0-17.655172-7.062069-17.655172-17.655172s7.062069-17.655172 17.655172-17.655172H900.413793c10.593103 0 17.655172 7.062069 17.655173 17.655172s-7.062069 17.655172-17.655173 17.655172zM900.413793 700.910345h-114.758621c-10.593103 0-17.655172-7.062069-17.655172-17.655173s7.062069-17.655172 17.655172-17.655172H900.413793c10.593103 0 17.655172 7.062069 17.655173 17.655172s-7.062069 17.655172-17.655173 17.655173zM346.041379 248.937931c-10.593103 0-17.655172-7.062069-17.655172-17.655172V123.586207c0-10.593103 7.062069-17.655172 17.655172-17.655173s17.655172 7.062069 17.655173 17.655173v107.696552c0 10.593103-7.062069 17.655172-17.655173 17.655172zM524.358621 248.937931c-10.593103 0-17.655172-7.062069-17.655173-17.655172V123.586207c0-10.593103 7.062069-17.655172 17.655173-17.655173s17.655172 7.062069 17.655172 17.655173v107.696552c0 10.593103-8.827586 17.655172-17.655172 17.655172zM688.551724 248.937931c-10.593103 0-17.655172-7.062069-17.655172-17.655172V123.586207c0-10.593103 7.062069-17.655172 17.655172-17.655173s17.655172 7.062069 17.655173 17.655173v107.696552c0 10.593103-8.827586 17.655172-17.655173 17.655172zM340.744828 918.068966c-10.593103 0-17.655172-7.062069-17.655173-15.889656v-121.820689c0-8.827586 7.062069-15.889655 17.655173-15.889655s17.655172 7.062069 17.655172 15.889655V900.413793c0 10.593103-7.062069 17.655172-17.655172 17.655173zM519.062069 918.068966c-10.593103 0-17.655172-7.062069-17.655172-15.889656v-121.820689c0-8.827586 7.062069-15.889655 17.655172-15.889655s17.655172 7.062069 17.655172 15.889655V900.413793c0 10.593103-8.827586 17.655172-17.655172 17.655173zM683.255172 918.068966c-10.593103 0-17.655172-7.062069-17.655172-15.889656v-121.820689c0-8.827586 7.062069-15.889655 17.655172-15.889655s17.655172 7.062069 17.655173 15.889655V900.413793c0 10.593103-8.827586 17.655172-17.655173 17.655173zM467.862069 481.986207c-10.593103 0-17.655172-7.062069-17.655172-17.655173v-70.620689c0-10.593103 7.062069-17.655172 17.655172-17.655173s17.655172 7.062069 17.655172 17.655173v70.620689c0 8.827586-7.062069 17.655172-17.655172 17.655173zM395.475862 481.986207c-10.593103 0-17.655172-7.062069-17.655172-17.655173v-70.620689c0-10.593103 7.062069-17.655172 17.655172-17.655173s17.655172 7.062069 17.655172 17.655173v70.620689c0 8.827586-7.062069 17.655172-17.655172 17.655173zM536.717241 481.986207c-10.593103 0-17.655172-7.062069-17.655172-17.655173v-70.620689c0-10.593103 7.062069-17.655172 17.655172-17.655173s17.655172 7.062069 17.655173 17.655173v70.620689c0 8.827586-7.062069 17.655172-17.655173 17.655173z"
          p-id="4466" fill="#515151"></path>
    <path d="M494.344828 605.572414h143.006896v35.310345H494.344828z" p-id="4467" fill="#515151"></path>
</svg>
